<svg width="51" height="47" viewBox="0 0 51 47" fill="none" xmlns="http://www.w3.org/2000/svg">
<g clip-path="url(#clip0_4097_2361)">
<circle cx="29.5925" cy="20.8889" r="20.8889" fill="#2F80ED"/>
<path d="M8.79968 7.86779L7.98885 11.5979L6.28445 12.018L4.91616 13.5041L0.818006 13.9756L0.554932 15.0946L1.92769 17.3954L7.15043 18.7315L7.86066 26.1135L8.3339 29.0364L12.0155 31.8042L13.4993 36.3938L12.9031 42.0152L13.4993 44.5942L15.4138 43.7467L16.8253 40.0673L18.3948 33.0464L20.9063 33.6991L26.533 33.0464L32.5547 31.414L34.7457 34.3109L36.933 37.2913L37.2587 42.9775L38.1441 44.539L40.4641 43.8504L40.6869 36.9444L39.2336 32.3891L40.1973 27.3579L39.4945 24.793L40.2397 24.7468L39.774 23.2077C39.774 23.2077 43.7104 20.0587 43.7335 15.8414C43.7618 10.5408 38.2991 5.69161 34.3552 7.55669L35.1854 8.45641L38.3304 9.54636L40.5341 12.4783L40.7271 16.8672L38.6032 19.1008C38.6032 19.1008 36.0559 20.0841 35.9143 20.0975C35.7727 20.1102 33.4125 19.8192 33.0957 19.7715C32.779 19.723 27.3841 19.6044 27.1978 19.6029L16.8387 19.5245L15.5249 15.7921L13.9747 13.6936L12.2368 12.4686L11.4081 10.2715L10.5697 8.61382L8.79968 7.86779Z" fill="#F4AA41"/>
<path d="M30.4739 32.7897L31.3741 35.4709L34.5467 37.6695L34.3648 42.4031L34.8209 45.285L37.1812 45.667C37.1812 45.667 38.858 45.1694 39.2619 42.9932L38.703 37.1182L36.0946 34.5071L34.2001 31.3058L30.4739 32.7905V32.7897Z" fill="#E27022"/>
<path d="M9.88914 28.794L5.77161 34.5161C5.76159 34.5301 5.75566 34.5466 5.75447 34.5638L5.51002 37.768C5.50841 37.7898 5.51447 37.8114 5.52716 37.8292L7.90453 41.1848C7.92092 41.2072 7.94626 41.2221 7.97383 41.2236L10.9176 41.4213C10.9519 41.4236 10.9847 41.4064 11.0025 41.3781L11.867 39.9875C11.8715 39.9808 11.873 39.98 11.8752 39.9725C11.9088 39.8681 12.2099 37.9694 11.0107 37.8202C9.60669 37.6464 9.47925 36.9004 9.77362 35.9947C9.77014 35.9774 9.77165 35.9594 9.77798 35.9429C9.78432 35.9264 9.79521 35.912 9.8094 35.9015L13.9321 32.8524C13.9427 32.8446 13.9515 32.8346 13.958 32.8232C13.9644 32.8117 13.9684 32.799 13.9696 32.7859C13.9708 32.7728 13.9692 32.7596 13.9649 32.7471C13.9607 32.7347 13.9538 32.7233 13.9448 32.7137L11.8037 30.4286C11.7902 30.4134 11.7717 30.4036 11.7515 30.401C11.528 30.3711 10.0896 30.1324 10.0561 28.8425C10.0538 28.7552 9.94056 28.7231 9.88914 28.7933V28.794Z" fill="#E27022"/>
<path d="M39.429 26.2979C39.9253 27.5646 40.0624 28.5083 39.8135 29.655L38.9691 33.5366L40.4224 38.0911C40.4224 38.0911 40.5118 41.6497 40.4231 44.2683C40.4071 44.6618 40.2406 45.0341 39.958 45.3082C39.6755 45.5823 39.2985 45.7372 38.905 45.7409H38.642C37.6389 45.7409 37.2073 44.7524 37.2073 43.7483L36.5716 37.4883C36.5716 37.4883 30.9897 33.4098 31.7588 27.3386" stroke="black" stroke-width="0.87037" stroke-miterlimit="10" stroke-linecap="round" stroke-linejoin="round"/>
<path d="M20.6853 34.1931C23.5419 34.0402 29.0575 34.1931 31.8522 32.1878" stroke="black" stroke-width="0.87037" stroke-miterlimit="10" stroke-linecap="round" stroke-linejoin="round"/>
<path d="M34.181 9.38757C38.4737 10.5409 40.199 12.588 40.6275 14.7627C41.4018 18.6936 37.6375 22.0724 33.7533 21.1055C31.8707 20.637 30.2886 20.775 30.2886 20.775L16.5744 20.6713C15.3164 14.6098 11.7697 13.5355 11.7697 13.5355C11.1243 9.38757 8.5629 9.38757 8.5629 9.38757L8.04123 12.9984L6.95017 13.1849C6.36574 13.2847 5.8234 13.5539 5.39036 13.9593L4.38203 14.903L1.31605 15.2335C1.18404 15.2478 1.0572 15.2928 0.945604 15.3648C0.83401 15.4368 0.740746 15.5339 0.673232 15.6484C0.605717 15.7628 0.565816 15.8915 0.556701 16.0241C0.547586 16.1567 0.569509 16.2896 0.620726 16.4122L1.27655 17.9804C1.49267 18.4959 1.9525 18.8696 2.501 18.9748L7.32057 19.5209C7.32057 19.5209 6.57531 29.3439 9.35511 30.836C15.414 34.0887 12.6394 43.1619 12.6394 43.1619C12.0268 44.2332 12.5001 45.741 13.7335 45.741H13.7342C14.326 45.741 14.87 45.4149 15.1495 44.8935L16.7145 40.8142L17.7407 33.9917C17.8212 33.456 17.7139 32.9152 17.4687 32.4325C17.0394 31.5872 16.5341 29.9258 17.3666 27.5646" stroke="black" stroke-width="0.87037" stroke-miterlimit="10" stroke-linecap="round" stroke-linejoin="round"/>
<path d="M7.80643 29.5677L4.56308 34.5333C4.32026 34.8898 4.18567 35.3091 4.17555 35.7404C4.1435 37.0497 3.98625 39.8749 6.41131 41.4774C7.0485 41.8982 8.24762 41.9549 8.88109 41.561C9.41618 41.2282 9.85215 40.5978 9.45791 39.4034" stroke="black" stroke-width="0.87037" stroke-miterlimit="10" stroke-linecap="round" stroke-linejoin="round"/>
<path d="M11.0104 33.4001L7.72461 35.6971" stroke="black" stroke-width="0.87037" stroke-miterlimit="10" stroke-linecap="round" stroke-linejoin="round"/>
<path d="M30.2998 35.6971C30.6225 36.8662 32.593 37.9375 33.4671 38.4828L32.6697 43.8117C32.6697 44.2981 32.8091 44.7667 33.1094 45.1039C33.9016 45.9901 34.9204 45.6 34.9204 45.6" stroke="black" stroke-width="0.87037" stroke-miterlimit="10" stroke-linecap="round" stroke-linejoin="round"/>
</g>
<defs>
<clipPath id="clip0_4097_2361">
<rect width="50.4815" height="47" fill="white"/>
</clipPath>
</defs>
</svg>
