<svg width="34" height="37" viewBox="0 0 34 37" fill="none" xmlns="http://www.w3.org/2000/svg">
<circle cx="18.7195" cy="16.8694" r="14.0558" fill="#8ACEFF"/>
<path d="M6.86597 27.8161C10.4778 27.8161 16.4722 24.9516 16.1832 19.4685C16.0277 16.5164 14.7737 15.0044 13.2979 14.3433" stroke="black" stroke-width="0.388639" stroke-linecap="round" stroke-linejoin="round"/>
<path d="M7.7728 28.7229C13.019 28.7229 17.4888 23.9297 17.4888 21.2092" stroke="black" stroke-width="0.388639" stroke-linecap="round" stroke-linejoin="round"/>
<path d="M7.70801 28.7113C9.00347 30.0715 11.7325 29.1791 13.0842 28.7113C15.5754 27.8492 17.8796 26.2692 18.7195 24.2536M23.4538 20.6263C24.0309 17.6468 23.6514 16.0922 23.4538 14.7968" stroke="black" stroke-width="0.388639" stroke-linecap="round" stroke-linejoin="round"/>
<path d="M22.2172 23.1525C21.2456 26.1968 16.9058 30.3423 10.1046 30.3423" stroke="black" stroke-width="0.388639" stroke-linecap="round" stroke-linejoin="round"/>
<path d="M20.9218 28.4639C23.124 27.4275 25.132 24.3832 25.3911 22.6343" stroke="black" stroke-width="0.388639" stroke-linecap="round"/>
<path d="M26.492 16.2865C26.601 16.6134 26.7099 18.1357 26.4315 20.1081" stroke="black" stroke-width="0.388639" stroke-linecap="round" stroke-linejoin="round"/>
<path d="M21.1599 19.2012C21.1599 16.6736 20.8104 15.0546 20.3388 13.9546" stroke="black" stroke-width="0.388639" stroke-linecap="round" stroke-linejoin="round"/>
<path d="M17.4888 17.5669C17.3543 15.9534 16.5521 14.5518 15.5456 13.566" stroke="black" stroke-width="0.388639" stroke-linecap="round" stroke-linejoin="round"/>
<path d="M18.9138 16.6751C18.9138 15.4522 18.4697 14.4616 17.8774 13.6956" stroke="black" stroke-width="0.388639" stroke-linecap="round" stroke-linejoin="round"/>
<path d="M9.11987 29.6789C20.9108 36.9501 33.9671 27.5929 32.6882 14.6163C31.5287 2.85107 18.5776 -0.327511 13.0775 1.46574C9.93241 2.38625 3.3682 6.20391 3.36819 12.4046C3.36819 15.1862 5.3463 19.7584 11.2705 19.4604" stroke="black" stroke-width="0.388639" stroke-linecap="round" stroke-linejoin="round"/>
<path d="M11.4649 19.3308C10.1046 19.3308 7.64325 16.8046 9.97509 15.1853" stroke="black" stroke-width="0.388639"/>
<path d="M8.93871 10.1978C7.96712 10.5864 6.6689 13.4378 9.48804 15.1096C10.8171 15.8978 12.566 15.6387 13.3433 13.7603M12.4365 11.0398C11.3353 12.7239 13.9262 15.3148 16.0638 12.7239" stroke="#060606" stroke-width="0.388639" stroke-linecap="square"/>
<path d="M22.2172 10.0034C18.9786 13.7603 24.7434 15.8978 25.2616 12.7887" stroke="#060606" stroke-width="0.388639"/>
<path d="M24.1604 14.2676C24.3979 14.9801 25.3263 16.3274 27.14 16.0165C27.6797 15.8653 28.7852 15.3039 28.8888 14.2676" stroke="#060606" stroke-width="0.388639"/>
<path d="M16.3738 12.966C16.3902 12.9853 16.3228 12.9073 16.3738 12.966ZM16.3738 12.966C18.9785 14.7858 21.2456 13.3607 21.2456 13.3607M16.3738 12.966C12.9546 9.48527 15.7399 5.46933 17.8126 5.08069" stroke="#060606" stroke-width="0.388639" stroke-linecap="square" stroke-linejoin="bevel"/>
<path d="M5.10797 26.1875C9.56393 32.0035 17.891 33.106 23.707 28.6501C28.0327 25.3359 30.0609 20.027 28.8241 15.0558" stroke="black" stroke-width="0.388639"/>
</svg>
